# xmcd
#
# Track frame offsets:
#	150
#	22127
#	37269
#	48806
#	63412
#	79588
#	94257
#	112959
#	129020
#	151833
#	169822
#	189929
#	203264
#
# Disc length: 2890 seconds
#
# Revision: 1
# Processed by: cddbd v1.4PL0 Copyright (c) Steve Scherf et al.
# Submitted via: audiograbber 1.80
#
DISCID=990b480d
DTITLE=Star Room Boys - Why Do Lonely Men and Women Want to Break Each Others H
DTITLE=earts?
DYEAR=1900
DGENRE=
TTITLE0=Gastoria
TTITLE1=Was There Something in Her Eye?
TTITLE2=Both Our Towns
TTITLE3=It Belongs to You
TTITLE4=Why Do Lonely Men and Women Want to Break Each Other's Hearts?
TTITLE5=Souvenir
TTITLE6=New York City Isn't Going Anywhere
TTITLE7=Liar in My Heart
TTITLE8=Foolish
TTITLE9=Tell Me About the Blues
TTITLE10=Almost Doesn't Count
TTITLE11=Blue Marie
TTITLE12=Someone's Playing Our Song
EXTD=
EXTT0=
EXTT1=
EXTT2=
EXTT3=
EXTT4=
EXTT5=
EXTT6=
EXTT7=
EXTT8=
EXTT9=
EXTT10=
EXTT11=
EXTT12=
PLAYORDER=
